<?xml version="1.0" encoding="utf-8"?>
<!-- Generator: Adobe Illustrator 17.0.0, SVG Export Plug-In . SVG Version: 6.00 Build 0)  -->
<!DOCTYPE svg PUBLIC "-//W3C//DTD SVG 1.1//EN" "http://www.w3.org/Graphics/SVG/1.1/DTD/svg11.dtd">
<svg version="1.1" id="Layer_1" xmlns="http://www.w3.org/2000/svg" xmlns:xlink="http://www.w3.org/1999/xlink" x="0px" y="0px"
	 width="62px" height="62px" viewBox="-3 -1 62 62" enable-background="new -3 -1 62 62" xml:space="preserve">
<g>
	<path fill="#11324D" d="M43,48c0.552,0,1,0.448,1,1v2c0,0.552-0.448,1-1,1s-1-0.448-1-1v-2C42,48.448,42.448,48,43,48L43,48z
		 M44,37c0-0.552-0.448-1-1-1s-1,0.448-1,1v8c0,0.552,0.448,1,1,1s1-0.448,1-1V37z M50,26H6c-1.103,0-2,0.897-2,2v4
		c0,1.103,0.897,2,2,2v21c0,2.757,2.243,5,5,5h34c2.757,0,5-2.243,5-5V37c0-0.552-0.448-1-1-1s-1,0.448-1,1v18c0,1.654-1.346,3-3,3
		H11c-1.654,0-3-1.346-3-3V33c0-0.552-0.448-1-1-1H6v-4h44v4H11c-0.552,0-1,0.448-1,1s0.448,1,1,1h39c1.103,0,2-0.897,2-2v-4
		C52,26.897,51.103,26,50,26L50,26z"/>
	<path fill="#C4351E" d="M26,16.466c-1.291-1.162-2-2.752-2-4.466c0-4.271,4.975-11.285,5.186-11.581
		c0.376-0.526,1.252-0.526,1.628,0C31.025,0.715,36,7.729,36,12c0,2.852-2.026,5.326-4.818,5.883
		c-0.541,0.105-1.068-0.243-1.176-0.785c-0.109-0.541,0.243-1.068,0.785-1.176C32.65,15.55,34,13.901,34,12
		c0-2.516-2.421-6.784-4-9.217C28.421,5.216,26,9.484,26,12c0,1.269,0.583,2.435,1.599,3.199C27.85,15.388,28,15.686,28,16v7
		c0,0.552-0.448,1-1,1s-1-0.448-1-1V16.466L26,16.466z M7,24h2c0.552,0,1-0.448,1-1s-0.448-1-1-1H8v-2h5c0.552,0,1-0.448,1-1
		s-0.448-1-1-1H8v-2h1c0.552,0,1-0.448,1-1s-0.448-1-1-1H8v-2h1c0.552,0,1-0.448,1-1s-0.448-1-1-1H8V8h5c0.552,0,1-0.448,1-1
		s-0.448-1-1-1H8V2h12v21c0,0.552,0.448,1,1,1s1-0.448,1-1V1c0-0.552-0.448-1-1-1H7C6.448,0,6,0.448,6,1v22C6,23.552,6.448,24,7,24
		L7,24z M43,13v10c0,0.552,0.448,1,1,1s1-0.448,1-1V13c0-0.552-0.448-1-1-1S43,12.448,43,13L43,13z M49,12c-0.552,0-1,0.448-1,1v10
		c0,0.552,0.448,1,1,1s1-0.448,1-1V13C50,12.448,49.552,12,49,12L49,12z M39,24c0.552,0,1-0.448,1-1V9.287l4-6.4L47.196,8H43
		c-0.552,0-1,0.448-1,1s0.448,1,1,1h6c0.364,0,0.698-0.197,0.875-0.515c0.176-0.318,0.166-0.707-0.027-1.015l-5-8
		c-0.366-0.585-1.33-0.585-1.696,0l-5,8C38.053,8.629,38,8.812,38,9v14C38,23.552,38.448,24,39,24L39,24z M34,20
		c0-0.552-0.448-1-1-1s-1,0.448-1,1v3c0,0.552,0.448,1,1,1s1-0.448,1-1V20L34,20z"/>
</g>
</svg>
