<?xml version="1.0" encoding="utf-8"?>
<!-- Generator: Adobe Illustrator 17.0.0, SVG Export Plug-In . SVG Version: 6.00 Build 0)  -->
<!DOCTYPE svg PUBLIC "-//W3C//DTD SVG 1.1//EN" "http://www.w3.org/Graphics/SVG/1.1/DTD/svg11.dtd">
<svg version="1.1" id="Layer_1" xmlns="http://www.w3.org/2000/svg" xmlns:xlink="http://www.w3.org/1999/xlink" x="0px" y="0px"
	 width="62px" height="62px" viewBox="-3 -1 62 62" enable-background="new -3 -1 62 62" xml:space="preserve">
<g>
	<path fill="#C4351E" d="M41,6c-2.757,0-5,2.243-5,5c0,2.757,2.243,5,5,5c2.757,0,5-2.243,5-5C46,8.243,43.757,6,41,6z M41,14
		c-1.654,0-3-1.346-3-3c0-1.654,1.346-3,3-3c1.654,0,3,1.346,3,3C44,12.654,42.654,14,41,14z"/>
	<path fill="#11324D" d="M29.293,42.707c-0.391-0.391-0.391-1.023,0-1.414L31.586,39l-2.293-2.293c-0.391-0.391-0.391-1.023,0-1.414
		c0.391-0.391,1.023-0.391,1.414,0L33,37.586l2.293-2.293c0.391-0.391,1.023-0.391,1.414,0s0.391,1.023,0,1.414L34.414,39
		l2.293,2.293c0.391,0.391,0.391,1.023,0,1.414C36.512,42.902,36.256,43,36,43s-0.512-0.098-0.707-0.293L33,40.414l-2.293,2.293
		C30.512,42.902,30.256,43,30,43S29.488,42.902,29.293,42.707 M51.707,42.293c-0.391-0.391-1.023-0.391-1.414,0L48,44.586
		l-2.293-2.293c-0.391-0.391-1.023-0.391-1.414,0s-0.391,1.023,0,1.414L46.586,46l-2.293,2.293c-0.391,0.391-0.391,1.023,0,1.414
		C44.488,49.902,44.744,50,45,50s0.512-0.098,0.707-0.293L48,47.414l2.293,2.293C50.488,49.902,50.744,50,51,50
		s0.512-0.098,0.707-0.293c0.391-0.391,0.391-1.023,0-1.414L49.414,46l2.293-2.293C52.098,43.316,52.098,42.684,51.707,42.293
		 M8.293,21.707C8.488,21.902,8.744,22,9,22s0.512-0.098,0.707-0.293L12,19.414l2.293,2.293C14.488,21.902,14.744,22,15,22
		s0.512-0.098,0.707-0.293c0.391-0.391,0.391-1.023,0-1.414L13.414,18l2.293-2.293c0.391-0.391,0.391-1.023,0-1.414
		c-0.391-0.391-1.023-0.391-1.414,0L12,16.586l-2.293-2.293c-0.391-0.391-1.023-0.391-1.414,0s-0.391,1.023,0,1.414L10.586,18
		l-2.293,2.293C7.902,20.684,7.902,21.316,8.293,21.707 M21.707,46.293c-0.391-0.391-1.023-0.391-1.414,0L18,48.586l-2.293-2.293
		c-0.391-0.391-1.023-0.391-1.414,0c-0.391,0.391-0.391,1.023,0,1.414L16.586,50l-2.293,2.293c-0.391,0.391-0.391,1.023,0,1.414
		C14.488,53.902,14.744,54,15,54s0.512-0.098,0.707-0.293L18,51.414l2.293,2.293C20.488,53.902,20.744,54,21,54
		s0.512-0.098,0.707-0.293c0.391-0.391,0.391-1.023,0-1.414L19.414,50l2.293-2.293C22.098,47.316,22.098,46.684,21.707,46.293 M58,4
		c0-2.206-1.794-4-4-4H2c-2.206,0-4,1.794-4,4v52c0,2.206,1.794,4,4,4h3c0.552,0,1-0.447,1-1s-0.448-1-1-1H2c-1.103,0-2-0.897-2-2V4
		c0-1.103,0.897-2,2-2h52c1.103,0,2,0.897,2,2v52c0,1.103-0.897,2-2,2H10V35c0-3.859,3.14-7,7-7s7,3.141,7,7v6c0,4.963,4.038,9,9,9
		s9-4.037,9-9V21.414l4.293,4.293C46.488,25.902,46.744,26,47,26s0.512-0.098,0.707-0.293c0.391-0.391,0.391-1.023,0-1.414
		l-5.999-5.999c-0.093-0.093-0.203-0.166-0.326-0.217c-0.244-0.101-0.52-0.101-0.764,0c-0.123,0.051-0.233,0.124-0.325,0.217
		l-6,5.999c-0.391,0.391-0.391,1.023,0,1.414c0.391,0.391,1.023,0.391,1.414,0L40,21.414V41c0,3.859-3.14,7-7,7s-7-3.141-7-7v-6
		c0-4.963-4.038-9-9-9s-9,4.037-9,9v24c0,0.553,0.448,1,1,1h45c2.206,0,4-1.794,4-4V4"/>
</g>
</svg>
