<?xml version="1.0" encoding="utf-8"?>
<!-- Generator: Adobe Illustrator 17.0.0, SVG Export Plug-In . SVG Version: 6.00 Build 0)  -->
<!DOCTYPE svg PUBLIC "-//W3C//DTD SVG 1.1//EN" "http://www.w3.org/Graphics/SVG/1.1/DTD/svg11.dtd">
<svg version="1.1" id="Layer_1" xmlns="http://www.w3.org/2000/svg" xmlns:xlink="http://www.w3.org/1999/xlink" x="0px" y="0px"
	 width="62px" height="62px" viewBox="-3 -1 62 62" enable-background="new -3 -1 62 62" xml:space="preserve">
<g>
	<path fill="#C4351E" d="M24,27c0-1.654-1.346-3-3-3c-1.302,0-2.401,0.838-2.815,2h-2.37c-0.301-0.847-0.967-1.514-1.815-1.816V18
		h4.185c0.414,1.162,1.513,2,2.815,2c1.654,0,3-1.346,3-3c0-1.302-0.839-2.401-2-2.816V11c0-0.552-0.447-1-1-1c-0.553,0-1,0.448-1,1
		v3.184c-0.848,0.302-1.514,0.969-1.815,1.816H13c-0.553,0-1,0.448-1,1v7.184c-1.161,0.415-2,1.514-2,2.816c0,1.654,1.346,3,3,3
		c1.302,0,2.401-0.838,2.815-2h2.37c0.301,0.847,0.967,1.514,1.815,1.815v12.369c-0.557,0.199-1.035,0.553-1.386,1.017l-2.907-2.908
		c-0.003-0.002-0.006-0.003-0.009-0.006C15.886,39.896,16,39.462,16,39c0-1.654-1.346-3-3-3s-3,1.346-3,3c0,1.654,1.346,3,3,3
		c0.463,0,0.896-0.114,1.287-0.302c0.003,0.003,0.003,0.007,0.006,0.009l3.754,3.753c0.171,1.098,0.932,1.992,1.953,2.355V51
		c0,0.552,0.447,1,1,1c0.553,0,1-0.448,1-1v-3.184c1.161-0.415,2-1.514,2-2.816s-0.839-2.401-2-2.816V29.816
		C23.161,29.401,24,28.302,24,27z M21,16c0.552,0,1,0.449,1,1c0,0.551-0.448,1-1,1s-1-0.449-1-1C20,16.449,20.448,16,21,16z M13,28
		c-0.552,0-1-0.449-1-1s0.448-1,1-1s1,0.449,1,1S13.552,28,13,28z M13,40c-0.552,0-1-0.449-1-1s0.448-1,1-1s1,0.449,1,1
		S13.552,40,13,40z M21,46c-0.552,0-1-0.449-1-1s0.448-1,1-1s1,0.449,1,1S21.552,46,21,46z M21,28c-0.552,0-1-0.449-1-1s0.448-1,1-1
		s1,0.449,1,1S21.552,28,21,28z"/>
	<path fill="#11324D" d="M53.633,37.245C55.094,38.362,56,40.116,56,42c0,3.093-2.353,5.647-5.363,5.966
		C50.877,48.614,51,49.298,51,50c0,3.309-2.691,6-6,6c-1.245,0-2.425-0.379-3.414-1.075C40.568,57.882,37.747,60,34.5,60
		c-1.687,0-3.347-0.578-4.672-1.626c-0.432-0.343-0.506-0.972-0.163-1.405c0.343-0.432,0.97-0.506,1.405-0.163
		C32.057,57.587,33.243,58,34.5,58c2.853,0,5.257-2.229,5.474-5.076c0.02-0.266,0.143-0.502,0.329-0.668
		c0.105-0.103,0.235-0.184,0.383-0.233c0.409-0.134,0.858,0.007,1.116,0.352C42.57,53.408,43.736,54,45,54c2.206,0,4-1.794,4-4
		c0-0.908-0.316-1.776-0.916-2.511c-0.27-0.331-0.3-0.798-0.073-1.161c0.227-0.363,0.656-0.543,1.076-0.444
		C49.422,45.962,49.721,46,50,46c2.206,0,4-1.794,4-4c0-1.649-1.047-3.149-2.604-3.733c-0.371-0.139-0.625-0.483-0.648-0.877
		c-0.023-0.395,0.189-0.767,0.539-0.948C52.961,35.579,54,33.876,54,32c0-1.764-0.907-3.364-2.427-4.28
		c-0.237-0.143-0.404-0.378-0.462-0.649c-0.057-0.272,0.001-0.554,0.16-0.781C51.748,25.609,52,24.818,52,24
		c0-1.661-1.058-3.164-2.631-3.741c-0.311-0.114-0.546-0.375-0.627-0.696c-0.08-0.322,0.005-0.663,0.226-0.91
		C49.634,17.91,50,16.968,50,16c0-1.938-1.389-3.589-3.301-3.927c-0.268-0.048-0.507-0.203-0.658-0.43
		c-0.151-0.227-0.203-0.506-0.145-0.772C45.966,10.559,46,10.274,46,10c0-2.206-1.794-4-4-4c-0.866,0-1.701,0.289-2.416,0.836
		c-0.291,0.222-0.68,0.268-1.013,0.12c-0.335-0.149-0.561-0.468-0.592-0.832C37.789,3.812,35.821,2,33.5,2
		c-3.365,0-4.352,3.496-4.5,4.11V53c0,0.014-0.007,0.024-0.008,0.038c0,0.013,0.006,0.025,0.005,0.038
		C28.701,56.958,25.408,60,21.5,60c-3.245,0-6.064-2.114-7.084-5.068C13.424,55.623,12.242,56,11,56c-3.309,0-6-2.691-6-6
		c0-0.702,0.123-1.386,0.363-2.034C2.353,47.647,0,45.093,0,42c0-1.884,0.906-3.638,2.367-4.755C0.878,35.936,0,34.042,0,32
		c0-2.14,0.951-4.106,2.585-5.426C2.2,25.771,2,24.896,2,24c0-2.064,1.083-3.965,2.792-5.05C4.276,18.051,4,17.037,4,16
		c0-2.58,1.639-4.823,4.011-5.651C8.004,10.232,8,10.116,8,10c0-3.309,2.691-6,6-6c0.807,0,1.593,0.164,2.327,0.48
		C17.187,1.876,19.66,0,22.5,0c1.626,0,3.035,0.551,4.188,1.639c0.402,0.379,0.42,1.011,0.041,1.413
		c-0.378,0.402-1.011,0.421-1.414,0.042C24.535,2.358,23.614,2,22.5,2c-2.321,0-4.289,1.812-4.479,4.124
		c-0.031,0.364-0.257,0.683-0.592,0.832c-0.333,0.148-0.722,0.102-1.013-0.12C15.701,6.289,14.866,6,14,6c-2.206,0-4,1.794-4,4
		c0,0.274,0.034,0.559,0.104,0.871c0.058,0.266,0.006,0.545-0.145,0.772c-0.151,0.227-0.39,0.382-0.658,0.43
		C7.389,12.411,6,14.062,6,16c0,0.968,0.366,1.91,1.032,2.653c0.221,0.247,0.306,0.588,0.226,0.91
		c-0.081,0.321-0.316,0.582-0.627,0.696C5.058,20.836,4,22.339,4,24c0,0.818,0.252,1.609,0.729,2.29
		c0.159,0.227,0.217,0.509,0.16,0.781c-0.058,0.271-0.225,0.506-0.462,0.649C2.907,28.636,2,30.236,2,32
		c0,1.876,1.039,3.579,2.713,4.442c0.35,0.181,0.562,0.553,0.539,0.948c-0.023,0.394-0.277,0.738-0.648,0.877
		C3.047,38.851,2,40.351,2,42c0,2.206,1.794,4,4,4c0.279,0,0.578-0.038,0.913-0.116c0.422-0.099,0.85,0.081,1.076,0.444
		c0.227,0.363,0.197,0.83-0.073,1.161C7.316,48.224,7,49.092,7,50c0,2.206,1.794,4,4,4c1.26,0,2.428-0.585,3.204-1.606
		C14.394,52.146,14.688,52,15,52c0.522,0,0.986,0.403,1.026,0.924C16.243,55.771,18.647,58,21.5,58c2.863,0,5.274-2.221,5.5-5.06V6
		c0-0.035,0.017-0.063,0.02-0.097c0.002-0.034-0.007-0.066,0-0.099C27.421,3.796,29.292,0,33.5,0c2.84,0,5.313,1.876,6.173,4.48
		C40.407,4.164,41.193,4,42,4c3.309,0,6,2.691,6,6c0,0.116-0.004,0.232-0.011,0.349C50.361,11.177,52,13.42,52,16
		c0,1.037-0.276,2.051-0.792,2.95C52.917,20.035,54,21.936,54,24c0,0.896-0.2,1.771-0.585,2.574C55.049,27.894,56,29.86,56,32
		C56,34.042,55.122,35.936,53.633,37.245L53.633,37.245z M36,45c0,0.552,0.447,1,1,1c1.458,0,3,1.542,3,3c0,0.552,0.447,1,1,1
		s1-0.448,1-1c0-2.57-2.43-5-5-5C36.447,44,36,44.448,36,45L36,45z M45,18c-1.458,0-3-1.542-3-3c0-0.552-0.447-1-1-1s-1,0.448-1,1
		c0,2.57,2.43,5,5,5c0.553,0,1-0.448,1-1S45.553,18,45,18L45,18z M33,40c0.553,0,1-0.448,1-1c0-1.458,1.542-3,3-3
		c0.553,0,1-0.448,1-1s-0.447-1-1-1c-2.57,0-5,2.43-5,5C32,39.552,32.447,40,33,40L33,40z M37,28c0.553,0,1-0.448,1-1s-0.447-1-1-1
		c-1.458,0-3-1.542-3-3c0-0.552-0.447-1-1-1s-1,0.448-1,1C32,25.57,34.43,28,37,28L37,28z M47,24c-0.553,0-1,0.448-1,1
		c0,1.458-1.542,3-3,3c-0.553,0-1,0.448-1,1s0.447,1,1,1c2.57,0,5-2.43,5-5C48,24.448,47.553,24,47,24L47,24z M43,36
		c-0.553,0-1,0.448-1,1s0.447,1,1,1c1.458,0,3,1.542,3,3c0,0.552,0.447,1,1,1s1-0.448,1-1C48,38.43,45.57,36,43,36L43,36z M32,14
		c0,0.552,0.447,1,1,1s1-0.448,1-1c0-1.458,1.542-3,3-3c0.553,0,1-0.448,1-1s-0.447-1-1-1C34.43,9,32,11.43,32,14L32,14z"/>
</g>
</svg>
